<svg version="1.1" id="Layer_1" xmlns="http://www.w3.org/2000/svg" x="0" y="0" viewBox="0 0 160 45" xml:space="preserve"><style>.st0{fill:#caddea}.st2{fill:#01668b}</style><g id="XMLID_88_"><g id="XMLID_87_"><path id="XMLID_2_" class="st0" d="M46.3 19.3V5.1h5c1.7 0 3 .3 3.9 1 .9.7 1.3 1.6 1.3 2.9 0 .7-.2 1.3-.5 1.8-.4.5-.9.9-1.5 1.2.7.2 1.3.6 1.7 1.1.4.6.6 1.2.6 2 0 1.4-.4 2.4-1.3 3.1s-2.1 1.1-3.7 1.1h-5.5zm3-8.3h2.2c1.5 0 2.2-.6 2.2-1.8 0-.6-.2-1.1-.6-1.4-.4-.3-1-.4-1.8-.4h-2.1V11zm0 2.1V17h2.5c.7 0 1.2-.2 1.6-.5.4-.3.6-.8.6-1.4 0-1.3-.7-2-2-2h-2.7z"/><path id="XMLID_6_" class="st0" d="M67.7 13.1h-5.6V17h6.6v2.4h-9.6V5.1h9.5v2.4H62v3.4h5.6v2.2z"/><path id="XMLID_8_" class="st0" d="M77.8 15.6c0-.6-.2-1-.6-1.3-.4-.3-1.1-.6-2.1-.9-1-.3-1.8-.7-2.4-1-1.6-.9-2.4-2.1-2.4-3.5 0-.8.2-1.5.7-2.1.4-.6 1.1-1.1 1.9-1.4.8-.3 1.7-.5 2.7-.5 1 0 1.9.2 2.7.6.7.3 1.3.8 1.8 1.5.4.7.7 1.4.7 2.3h-2.9c0-.7-.2-1.2-.6-1.5-.4-.4-1-.5-1.7-.5s-1.3.2-1.7.5-.6.7-.6 1.2.2.9.7 1.2 1.2.6 2.1.9c1.7.5 2.9 1.1 3.7 1.9.8.7 1.1 1.7 1.1 2.8 0 1.2-.5 2.2-1.4 2.9-.9.7-2.2 1.1-3.8 1.1-1.1 0-2.1-.2-3-.6-.9-.4-1.6-1-2.1-1.7s-.7-1.5-.7-2.4h2.9c0 1.6.9 2.4 2.8 2.4.7 0 1.2-.1 1.6-.4.4-.6.6-1 .6-1.5z"/><path id="XMLID_10_" class="st0" d="M93.5 7.4h-4.4v11.9h-2.9V7.4h-4.3V5.1h11.6v2.3z"/><path id="XMLID_12_" class="st0" d="M106.4 15.2l1.9-10.1h2.9L108 19.4h-3l-2.3-9.5-2.3 9.5h-3l-3-14.3h2.9l1.9 10.1 2.4-10.1h2.5l2.3 10.1z"/><path id="XMLID_14_" class="st0" d="M118.4 11.4c-.4-.1-.7-.1-1-.1-1.1 0-1.8.4-2.1 1.1v6.9h-2.8V8.7h2.7l.1 1.3c.6-1 1.4-1.5 2.4-1.5.3 0 .6 0 .9.1l-.2 2.8z"/><path id="XMLID_16_" class="st0" d="M119.8 6c0-.4.1-.8.4-1s.7-.4 1.2-.4.9.1 1.2.4c.3.3.4.6.4 1s-.1.8-.4 1.1c-.3.3-.7.4-1.2.4s-.9-.1-1.2-.4c-.3-.3-.4-.7-.4-1.1zm3 13.3H120V8.7h2.8v10.6z"/><path id="XMLID_19_" class="st0" d="M128.5 6.1v2.6h1.8v2.1h-1.8v5.3c0 .4.1.7.2.8s.4.3.9.3c.3 0 .6 0 .8-.1v2.1c-.6.2-1.1.3-1.7.3-2 0-3-1-3-3v-5.7h-1.5V8.7h1.5V6.1h2.8z"/><path id="XMLID_21_" class="st0" d="M131.8 6c0-.4.1-.8.4-1s.7-.4 1.2-.4.9.1 1.2.4c.3.3.4.6.4 1s-.1.8-.4 1.1c-.3.3-.7.4-1.2.4s-.9-.1-1.2-.4c-.2-.3-.4-.7-.4-1.1zm3.1 13.3H132V8.7h2.8v10.6z"/><path id="XMLID_24_" class="st0" d="M139.8 8.7l.1 1.2c.8-.9 1.8-1.4 3-1.4 1.1 0 2 .3 2.5 1s.8 1.6.8 3v6.8h-2.8v-6.8c0-.6-.1-1-.4-1.3-.3-.3-.7-.4-1.3-.4-.8 0-1.4.3-1.8 1v7.5h-2.8V8.7h2.7z"/><path id="XMLID_26_" class="st0" d="M148 13.9c0-1.6.4-2.9 1.2-3.9.8-1 1.8-1.5 3.1-1.5 1.2 0 2.1.4 2.7 1.2l.1-1h2.6V19c0 .9-.2 1.7-.6 2.4-.4.7-1 1.2-1.8 1.6-.8.4-1.7.5-2.7.5-.8 0-1.5-.2-2.3-.5-.7-.3-1.3-.7-1.7-1.2l1.3-1.7c.7.8 1.6 1.2 2.6 1.2.8 0 1.3-.2 1.8-.6.4-.4.6-1 .6-1.7v-.6c-.7.7-1.5 1.1-2.6 1.1-1.3 0-2.3-.5-3.1-1.5-.8-1-1.2-2.3-1.2-4v-.1zm2.8.2c0 1 .2 1.7.6 2.3.4.5.9.8 1.6.8.9 0 1.5-.3 1.9-1v-4.5c-.4-.6-1-1-1.8-1-.7 0-1.2.3-1.6.8-.5.7-.7 1.5-.7 2.6z"/><path id="XMLID_29_" class="st0" d="M57.9 38.1H55V32h-5.7v6.1h-2.9V23.8h2.9v5.8H55v-5.8h2.9v14.3z"/><path id="XMLID_31_" class="st0" d="M69.1 31.9h-5.6v3.8h6.6v2.4h-9.6V23.8H70v2.4h-6.6v3.4H69v2.3z"/><path id="XMLID_33_" class="st0" d="M74.7 35.7H81v2.4h-9.2V23.8h2.9v11.9z"/><path id="XMLID_35_" class="st0" d="M85.6 33v5h-2.9V23.8h5.6c1.1 0 2 .2 2.8.6.8.4 1.4.9 1.9 1.7s.7 1.5.7 2.5c0 1.4-.5 2.5-1.4 3.3-1 .8-2.3 1.2-4 1.2h-2.7zm0-2.3h2.6c.8 0 1.4-.2 1.8-.5s.6-.9.6-1.6c0-.7-.2-1.3-.6-1.7-.4-.4-1-.7-1.7-.7h-2.7v4.5z"/><path id="XMLID_38_" class="st0" d="M91.6 36.7c0-.5.2-.8.5-1.1.3-.3.7-.4 1.1-.4.5 0 .8.1 1.2.4.3.3.5.6.5 1.1 0 .4-.2.8-.5 1.1-.3.3-.7.4-1.2.4s-.8-.1-1.1-.4c-.4-.3-.5-.7-.5-1.1z"/><path id="XMLID_40_" class="st0" d="M96.7 34c0-.8.2-1.5.5-2.1s.7-1.1 1.3-1.4c.6-.3 1.2-.5 2-.5 1.1 0 1.9.3 2.6 1s1.1 1.5 1.1 2.7v.5c0 1.2-.3 2.2-1 2.9-.7.7-1.6 1.1-2.7 1.1s-2.1-.4-2.7-1.1-1.1-1.7-1.1-3.1zm2.1.2c0 .8.1 1.3.4 1.7s.7.6 1.2.6.9-.2 1.2-.6c.3-.4.4-1 .4-1.9 0-.7-.1-1.3-.4-1.7-.3-.4-.7-.6-1.2-.6s-.9.2-1.2.6-.4 1-.4 1.9z"/><path id="XMLID_43_" class="st0" d="M109.9 32.1c-.3 0-.5-.1-.8-.1-.8 0-1.3.3-1.6.8V38h-2.1v-7.9h2l.1.9c.4-.7 1-1.1 1.8-1.1.2 0 .5 0 .7.1l-.1 2.1z"/><path id="XMLID_45_" class="st0" d="M110.5 34c0-1.2.3-2.2.9-2.9.6-.7 1.4-1.1 2.3-1.1.9 0 1.5.3 2 .9l.1-.7h1.9v7.7c0 .7-.2 1.3-.5 1.8s-.8.9-1.3 1.2c-.6.3-1.2.4-2 .4-.6 0-1.1-.1-1.7-.3-.6-.2-1-.5-1.3-.9l.9-1.3c.5.6 1.2.9 1.9.9.6 0 1-.1 1.3-.5s.5-.7.5-1.3v-.4c-.5.6-1.1.8-1.9.8-1 0-1.7-.4-2.3-1.1s-.8-1.8-.8-3.2zm2.1.2c0 .7.1 1.3.4 1.7.3.4.7.6 1.2.6.6 0 1.1-.2 1.4-.7v-3.3c-.3-.5-.7-.7-1.4-.7-.5 0-.9.2-1.2.6-.3.3-.4 1-.4 1.8z"/></g><g id="XMLID_74_"><path id="XMLID_86_" d="M19.4 15.1c0 1-.9 1.9-1.9 1.9H4.8c-.2.6-.3 1.3-.4 1.9h13.1c1 0 1.9.9 1.9 1.9 0 1-.9 1.9-1.9 1.9H4.4c.1.7.2 1.3.4 1.9h12.8c1 0 1.9.9 1.9 1.9 0 1-.9 1.9-1.9 1.9H6.2c2.7 5.1 8.1 8.6 14.4 8.6 9 0 16.3-7.3 16.3-16.3S29.6 4.4 20.6 4.4C14.4 4.4 9 7.9 6.2 13h11.3c1.1.2 1.9 1.1 1.9 2.1z" fill="none"/><path id="XMLID_85_" class="st0" d="M17.5 19H1.3c-.1.6-.1 1.3-.1 1.9s0 1.3.1 1.9h16.2c1 0 1.9-.9 1.9-1.9 0-1.1-.8-1.9-1.9-1.9z"/><path id="XMLID_84_" class="st0" d="M20.6 1.5c-8 0-14.8 4.8-17.8 11.7-.5 1.2-.9 2.5-1.2 3.8h16c1 0 1.9-.9 1.9-1.9 0-1-.9-1.9-1.9-1.9H6.2c2.7-5.1 8.1-8.6 14.4-8.6 9 0 16.3 7.3 16.3 16.3s-7.3 16.3-16.3 16.3c-6.2 0-11.6-3.5-14.4-8.6h11.3c1 0 1.9-.9 1.9-1.9 0-1-.9-1.9-1.9-1.9H1.6c.3 1.3.7 2.6 1.2 3.8 3 6.9 9.8 11.7 17.8 11.7 10.7 0 19.4-8.7 19.4-19.4S31.3 1.5 20.6 1.5z"/><path id="XMLID_83_" class="st2" d="M30.9 21s0 .1-.1.1c0 0 .1 0 .1-.1z"/><path id="XMLID_79_" class="st2" d="M30.8 20.5s0 .1.1.1c0 0-.1 0-.1-.1z"/><path id="XMLID_76_" class="st0" d="M30.9 21v-.3s0-.1-.1-.1l-.1-.1-2.9-2-6.5-4.6c-.3-.2-.6-.1-.8.1-.2.3-.1.6.1.8l5.8 4.1c-.5.6-.8 1.3-.8 2.2 0 .8.2 1.4.6 2l-5.7 4c-.3.2-.3.5-.1.8.2.3.5.3.8.1l9.4-6.6.1-.1c.1-.2.2-.2.2-.3z"/></g></g></svg>