<svg version="1.1" id="Layer_1" xmlns="http://www.w3.org/2000/svg" x="0" y="0" viewBox="0 0 80 80" xml:space="preserve"><style>.st0{fill:#1b7fd0}</style><g id="XMLID_17_"><path id="XMLID_12_" class="st0" d="M33.8 36.1H.2C.1 37.4 0 38.7 0 40c0 1.3.1 2.6.2 3.9h33.6c2.2 0 3.9-1.8 3.9-3.9 0-2.2-1.8-3.9-3.9-3.9z"/><path id="XMLID_4_" class="st0" d="M40 0C23.5 0 9.3 10 3.2 24.3c-1.1 2.5-1.9 5.1-2.4 7.8h33c2.2 0 3.9-1.8 3.9-3.9 0-2.2-1.8-3.9-3.9-3.9H10.3C16 13.6 27.1 6.4 40 6.4c18.6 0 33.6 15 33.6 33.6S58.6 73.6 40 73.6c-12.9 0-24-7.2-29.7-17.9h23.4c2.2 0 3.9-1.8 3.9-3.9 0-2.2-1.8-3.9-3.9-3.9H.8c.5 2.7 1.4 5.3 2.4 7.8C9.3 70 23.5 80 40 80c22.1 0 40-17.9 40-40S62.1 0 40 0z"/><path id="XMLID_39_" class="st0" d="M61.3 40.4c0 .1-.1.2-.1.3 0-.1.1-.2.1-.3z"/><path id="XMLID_44_" class="st0" d="M61.3 39.6s0 .1.1.1c-.1 0-.1 0-.1-.1z"/><path id="XMLID_46_" class="st0" d="M61.2 39.3c-.1 0-.1 0 0 0-.1 0-.1 0 0 0z"/><path id="XMLID_47_" class="st0" d="M61.2 39.3c.1.1.1.2.1.3 0-.1-.1-.2-.1-.3z"/><path id="XMLID_49_" class="st0" d="M61.4 40.2s0 .1-.1.1l.1-.1z"/><path id="XMLID_2_" class="st0" d="M61.4 40.2v-.4s0-.1-.1-.1c0-.1-.1-.2-.1-.3 0 0-.1 0-.1-.1-.1-.1-.1-.2-.2-.3L55 34.8l-13.5-9.5c-.5-.4-1.3-.2-1.6.3s-.2 1.3.3 1.6l12 8.4c-1 1.2-1.6 2.8-1.6 4.5 0 1.6.5 3 1.3 4.2l-11.7 8.2c-.5.4-.7 1.1-.3 1.6s1.1.7 1.6.3L60.9 41l.2-.2s.1 0 .1-.1c.1-.1.1-.2.1-.3 0-.1 0-.1.1-.2z"/><path id="XMLID_51_" class="st0" d="M61.2 40.7c-.1 0-.1 0 0 0-.1 0-.1 0 0 0z"/></g></svg>