<svg version="1.1" id="Layer_1" xmlns="http://www.w3.org/2000/svg" x="0" y="0" viewBox="0 0 583 80" xml:space="preserve"><style>.st0{fill:#1b7fd0}</style><g id="XMLID_3_"><path id="XMLID_9_" class="st0" d="M91.6 57.5V19.3H105c4.6 0 8.2.9 10.6 2.7 2.4 1.8 3.6 4.4 3.6 7.8 0 1.9-.5 3.5-1.4 5-1 1.4-2.3 2.5-4 3.1 2 .5 3.5 1.5 4.6 3 1.1 1.5 1.7 3.3 1.7 5.5 0 3.7-1.2 6.5-3.5 8.4-2.3 1.9-5.7 2.9-10 2.9h-15zm7.9-22.2h5.8c4-.1 6-1.7 6-4.8 0-1.7-.5-3-1.5-3.7-1-.8-2.6-1.1-4.8-1.1h-5.5v9.6zm0 5.6v10.3h6.8c1.9 0 3.3-.4 4.3-1.3s1.6-2.1 1.6-3.7c0-3.5-1.8-5.3-5.4-5.3h-7.3z"/><path id="XMLID_23_" class="st0" d="M149 40.9h-15.1v10.3h17.8v6.3h-25.6V19.3h25.6v6.4H134v9.1h15v6.1z"/><path id="XMLID_25_" class="st0" d="M176.1 47.5c0-1.5-.5-2.6-1.6-3.4-1.1-.8-2.9-1.6-5.7-2.5s-4.9-1.8-6.5-2.6c-4.3-2.3-6.5-5.5-6.5-9.5 0-2.1.6-3.9 1.7-5.5s2.8-2.9 5-3.8c2.2-.9 4.6-1.4 7.3-1.4s5.2.5 7.3 1.5c2.1 1 3.8 2.4 5 4.2 1.2 1.8 1.8 3.9 1.8 6.1H176c0-1.8-.6-3.1-1.7-4.1-1.1-1-2.7-1.5-4.7-1.5-1.9 0-3.4.4-4.5 1.2-1.1.8-1.6 1.9-1.6 3.2 0 1.2.6 2.3 1.9 3.1 1.3.8 3.1 1.6 5.5 2.4 4.5 1.3 7.8 3 9.8 5 2 2 3.1 4.5 3.1 7.5 0 3.3-1.3 5.9-3.8 7.8-2.5 1.9-5.9 2.8-10.1 2.8-2.9 0-5.6-.5-8-1.6-2.4-1.1-4.3-2.6-5.5-4.4-1.3-1.9-1.9-4-1.9-6.5h7.9c0 4.2 2.5 6.3 7.6 6.3 1.9 0 3.3-.4 4.4-1.1 1.1-.8 1.7-1.8 1.7-3.2z"/><path id="XMLID_27_" class="st0" d="M218.1 25.6h-11.7v31.9h-7.9V25.6h-11.6v-6.4h31.2v6.4z"/><path id="XMLID_29_" class="st0" d="M252.8 46.5l5.2-27.2h7.9l-8.5 38.3h-7.9L243.3 32l-6.2 25.6H229l-8.5-38.3h7.9l5.2 27.2 6.3-27.2h6.7l6.2 27.2z"/><path id="XMLID_31_" class="st0" d="M285 36.2c-1-.1-1.9-.2-2.7-.2-2.9 0-4.8 1-5.6 2.9v18.6H269V29.1h7.2l.2 3.4c1.5-2.6 3.6-3.9 6.3-3.9.8 0 1.6.1 2.4.3l-.1 7.3z"/><path id="XMLID_33_" class="st0" d="M288.6 21.7c0-1.1.4-2.1 1.1-2.8.8-.7 1.8-1.1 3.1-1.1s2.3.4 3.1 1.1c.8.7 1.2 1.7 1.2 2.8 0 1.2-.4 2.1-1.2 2.8s-1.8 1.1-3.1 1.1-2.3-.4-3.1-1.1c-.7-.7-1.1-1.6-1.1-2.8zm8.1 35.8H289V29.1h7.6v28.4z"/><path id="XMLID_36_" class="st0" d="M312 22.1v7h4.9v5.6H312v14.2c0 1.1.2 1.8.6 2.3.4.5 1.2.7 2.3.7.8 0 1.6-.1 2.2-.2v5.8c-1.5.5-3 .7-4.6.7-5.3 0-8-2.7-8.1-8.1V34.7h-4.2v-5.6h4.2v-7h7.6z"/><path id="XMLID_38_" class="st0" d="M321 21.7c0-1.1.4-2.1 1.1-2.8.8-.7 1.8-1.1 3.1-1.1s2.3.4 3.1 1.1c.8.7 1.2 1.7 1.2 2.8 0 1.2-.4 2.1-1.2 2.8s-1.8 1.1-3.1 1.1-2.3-.4-3.1-1.1c-.7-.7-1.1-1.6-1.1-2.8zm8.1 35.8h-7.6V29.1h7.6v28.4z"/><path id="XMLID_42_" class="st0" d="M342.4 29.1l.2 3.3c2-2.5 4.8-3.8 8.2-3.8 3 0 5.3.9 6.7 2.7 1.5 1.8 2.2 4.4 2.3 7.9v18.4h-7.6V39.3c0-1.6-.4-2.8-1.1-3.5-.7-.7-1.9-1.1-3.5-1.1-2.1 0-3.7.9-4.8 2.7v20.1h-7.6V29.1h7.2z"/><path id="XMLID_50_" class="st0" d="M364.4 43.1c0-4.4 1-7.9 3.1-10.5 2.1-2.7 4.9-4 8.4-4 3.1 0 5.5 1.1 7.3 3.2l.3-2.7h6.9v27.5c0 2.5-.6 4.7-1.7 6.5-1.1 1.8-2.7 3.2-4.8 4.2s-4.5 1.4-7.2 1.4c-2.1 0-4.1-.4-6.1-1.2s-3.5-1.9-4.5-3.2l3.4-4.6c1.9 2.1 4.2 3.2 6.9 3.2 2 0 3.6-.5 4.7-1.6s1.7-2.6 1.7-4.6v-1.5c-1.8 2-4.1 3-6.9 3-3.4 0-6.2-1.3-8.3-4-2.1-2.7-3.2-6.2-3.2-10.6v-.5zm7.6.5c0 2.6.5 4.6 1.6 6.1 1 1.5 2.5 2.2 4.3 2.2 2.3 0 4-.9 5-2.6v-12c-1-1.7-2.7-2.6-4.9-2.6-1.8 0-3.3.7-4.3 2.2-1.2 1.5-1.7 3.8-1.7 6.7z"/><path id="XMLID_54_" class="st0" d="M427.9 57.5H420V41.1h-15.4v16.4h-7.9V19.3h7.9v15.5H420V19.3h7.9v38.2z"/><path id="XMLID_56_" class="st0" d="M457.8 40.9h-15.1v10.3h17.8v6.3h-25.6V19.3h25.6v6.4h-17.7v9.1h15.1v6.1z"/><path id="XMLID_58_" class="st0" d="M472.9 51.2h16.7v6.3H465V19.3h7.9v31.9z"/><path id="XMLID_60_" class="st0" d="M502 44v13.5h-7.9V19.3H509c2.9 0 5.4.5 7.6 1.6 2.2 1.1 3.9 2.5 5 4.5 1.2 1.9 1.8 4.1 1.8 6.6 0 3.7-1.3 6.7-3.8 8.9C517 43 513.5 44 509 44h-7zm0-6.3h7c2.1 0 3.7-.5 4.8-1.5 1.1-1 1.6-2.4 1.6-4.2 0-1.9-.6-3.4-1.7-4.5s-2.6-1.8-4.6-1.8H502v12z"/><path id="XMLID_63_" class="st0" d="M518.2 53.8c0-1.2.4-2.2 1.2-2.9.8-.8 1.8-1.1 3.1-1.1 1.2 0 2.3.4 3.1 1.1.8.8 1.2 1.7 1.2 2.9s-.4 2.2-1.2 2.9c-.8.7-1.8 1.1-3.1 1.1-1.2 0-2.3-.4-3.1-1.1-.8-.7-1.2-1.7-1.2-2.9z"/><path id="XMLID_65_" class="st0" d="M531.6 48.1c0-1.8.4-3.5 1.1-4.9.7-1.4 1.7-2.5 3-3.3 1.3-.8 2.9-1.2 4.6-1.2 2.5 0 4.5.8 6.1 2.3 1.6 1.5 2.5 3.6 2.6 6.2v1.3c0 2.8-.8 5.1-2.4 6.8-1.6 1.7-3.7 2.6-6.4 2.6s-4.8-.9-6.4-2.6c-1.6-1.7-2.4-4-2.4-7v-.2zm4.9.4c0 1.8.3 3.1 1 4 .7.9 1.6 1.4 2.8 1.4 1.2 0 2.1-.5 2.8-1.4.7-.9 1-2.4 1-4.4 0-1.7-.3-3-1-4-.7-.9-1.6-1.4-2.8-1.4-1.2 0-2.1.5-2.8 1.4-.6 1-1 2.4-1 4.4z"/><path id="XMLID_68_" class="st0" d="M562.5 43.7c-.7-.1-1.3-.1-1.8-.1-1.9 0-3.1.6-3.7 1.9v12.1h-4.9V39.1h4.7l.1 2.2c1-1.7 2.4-2.5 4.1-2.5.5 0 1.1.1 1.5.2v4.7z"/><path id="XMLID_70_" class="st0" d="M563.8 48.2c0-2.8.7-5.1 2-6.8 1.3-1.7 3.2-2.6 5.4-2.6 2 0 3.6.7 4.7 2.1l.2-1.7h4.5V57c0 1.6-.4 3-1.1 4.2-.7 1.2-1.8 2.1-3.1 2.7-1.3.6-2.9.9-4.7.9-1.4 0-2.7-.3-4-.8-1.3-.5-2.3-1.2-2.9-2.1l2.2-3c1.2 1.4 2.7 2.1 4.5 2.1 1.3 0 2.3-.3 3.1-1s1.1-1.7 1.1-3v-1c-1.1 1.3-2.6 1.9-4.5 1.9-2.2 0-4-.9-5.4-2.6-1.4-1.7-2.1-4-2.1-6.9v-.2zm4.9.3c0 1.7.3 3 1 3.9.7 1 1.6 1.4 2.8 1.4 1.5 0 2.6-.6 3.2-1.7v-7.8c-.7-1.1-1.7-1.7-3.2-1.7-1.2 0-2.1.5-2.8 1.5s-1 2.5-1 4.4z"/></g><path id="XMLID_12_" class="st0" d="M34.2 36.1H.6C.5 37.4.4 38.7.4 40c0 1.3.1 2.6.2 3.9h33.6c2.2 0 3.9-1.8 3.9-3.9 0-2.2-1.7-3.9-3.9-3.9z"/><path id="XMLID_4_" class="st0" d="M40.4 0C23.9 0 9.8 10 3.7 24.3c-1.1 2.5-1.9 5.1-2.4 7.8h33c2.2 0 3.9-1.8 3.9-3.9 0-2.2-1.8-3.9-3.9-3.9H10.8C16.4 13.6 27.6 6.4 40.4 6.4 59 6.4 74 21.4 74 40S59 73.6 40.4 73.6c-12.9 0-24-7.2-29.7-17.9h23.4c2.2 0 3.9-1.8 3.9-3.9 0-2.2-1.8-3.9-3.9-3.9H1.2c.5 2.7 1.4 5.3 2.4 7.8C9.8 70 23.9 80 40.4 80c22.1 0 40-17.9 40-40S62.5 0 40.4 0z"/><path id="XMLID_39_" class="st0" d="M61.7 40.4c0 .1-.1.2-.1.3.1-.1.1-.2.1-.3z"/><path id="XMLID_44_" class="st0" d="M61.7 39.6s0 .1.1.1l-.1-.1z"/><path id="XMLID_47_" class="st0" d="M61.6 39.3c.1.1.1.2.1.3 0-.1 0-.2-.1-.3z"/><path id="XMLID_49_" class="st0" d="M61.8 40.2s0 .1-.1.1c.1 0 .1 0 .1-.1z"/><path id="XMLID_2_" class="st0" d="M61.8 40.2v-.4s0-.1-.1-.1c0-.1-.1-.2-.1-.3 0 0-.1 0-.1-.1-.1-.1-.1-.2-.2-.2l-5.9-4.2-13.5-9.5c-.5-.4-1.3-.2-1.6.3s-.3 1.3.3 1.6l12 8.4c-1 1.2-1.6 2.8-1.6 4.5 0 1.6.5 3 1.3 4.2l-11.7 8.2c-.5.4-.7 1.1-.3 1.6s1.1.7 1.6.3L61.3 41l.2-.2s.1 0 .1-.1c.1-.1.1-.2.1-.3.1-.1.1-.1.1-.2z"/></svg>